<svg width="153" height="51" viewBox="0 0 153 51" fill="none" xmlns="http://www.w3.org/2000/svg">
<g clip-path="url(#clip0_5704_54472)">
<path d="M0.679692 49.3546C0.617142 49.2921 0.587952 49.2171 0.587952 49.1255V44.4141C0.587952 44.3225 0.617142 44.2475 0.679692 44.185C0.742242 44.1225 0.817303 44.0934 0.909043 44.0934H2.37689C2.76053 44.0934 3.11081 44.185 3.42773 44.3683C3.74049 44.5516 3.99069 44.8057 4.17417 45.1265C4.35765 45.4472 4.44939 45.7971 4.44939 46.1845V47.3593C4.44939 47.7425 4.35765 48.0966 4.17417 48.4132C3.99069 48.7339 3.74466 48.9839 3.42773 49.1713C3.11081 49.3588 2.7647 49.4504 2.37689 49.4504H0.909043C0.817303 49.4504 0.742242 49.4212 0.679692 49.3588M2.33936 48.5715C2.55203 48.5715 2.75219 48.5173 2.93567 48.409C3.11915 48.3007 3.26093 48.1591 3.36935 47.9758C3.47777 47.7925 3.53199 47.5925 3.53199 47.3717V46.1595C3.53199 45.9471 3.47777 45.7471 3.36935 45.5639C3.26093 45.3806 3.11498 45.2348 2.93567 45.1306C2.75219 45.0223 2.5562 44.9682 2.33936 44.9682H1.50119V48.5715H2.33936Z" fill="white"/>
<path d="M6.37592 49.2088C6.10486 49.0505 5.88802 48.8339 5.72956 48.5589C5.5711 48.284 5.4877 47.9841 5.4877 47.6592V46.851C5.4877 46.5261 5.56693 46.2262 5.72956 45.9512C5.88802 45.6763 6.10486 45.4597 6.37592 45.3014C6.64697 45.1431 6.94721 45.064 7.27247 45.064C7.59773 45.064 7.89797 45.1431 8.16902 45.3014C8.44007 45.4597 8.65692 45.6805 8.81955 45.9512C8.98218 46.222 9.05724 46.5261 9.05724 46.851V47.3509C9.05724 47.4425 9.02805 47.5175 8.9655 47.58C8.90295 47.6425 8.82789 47.6717 8.73615 47.6717H6.38843V47.7091C6.38843 47.9549 6.476 48.1632 6.64697 48.334C6.81794 48.5048 7.02644 48.5923 7.27247 48.5923H8.46509C8.51096 48.5923 8.5485 48.6089 8.57769 48.6381C8.60688 48.6672 8.62356 48.7047 8.62356 48.7506V49.2879C8.62356 49.3338 8.60688 49.3712 8.57769 49.4004C8.5485 49.4296 8.51096 49.4462 8.46509 49.4462H7.27247C6.94721 49.4462 6.65114 49.3671 6.37592 49.2088ZM8.16068 46.8635V46.7969C8.16068 46.5511 8.07311 46.3428 7.90214 46.172C7.73117 46.0012 7.52267 45.9138 7.27664 45.9138C7.03061 45.9138 6.82211 46.0012 6.65114 46.172C6.48017 46.3428 6.3926 46.5511 6.3926 46.7969V46.8635H8.16068ZM7.00142 44.6391C6.98057 44.6099 6.9764 44.5766 7.00142 44.5349L7.33919 43.8101C7.34753 43.7809 7.36838 43.7559 7.39757 43.7393C7.42676 43.7226 7.45595 43.7143 7.48514 43.7143H8.29412C8.32748 43.7143 8.35667 43.7268 8.37752 43.7476C8.39837 43.7684 8.40671 43.7976 8.40671 43.8268C8.40671 43.8559 8.3942 43.8851 8.36918 43.9101L7.59773 44.6307C7.55603 44.6724 7.50599 44.6891 7.43927 44.6891H7.09316C7.05146 44.6891 7.02227 44.6724 7.00142 44.6432" fill="white"/>
<path d="M13.1188 49.088C12.877 48.8464 12.756 48.5339 12.756 48.1424V45.9929H12.239C12.1931 45.9929 12.1556 45.9762 12.1264 45.9471C12.0972 45.9179 12.0805 45.8804 12.0805 45.8346V45.3097C12.0805 45.2639 12.0972 45.2264 12.1264 45.1972C12.1556 45.1681 12.1931 45.1514 12.239 45.1514H12.756V44.3433C12.756 44.2975 12.7727 44.26 12.8019 44.2308C12.8311 44.2017 12.8686 44.185 12.9145 44.185H13.4983C13.5442 44.185 13.5817 44.2017 13.6109 44.2308C13.6401 44.26 13.6568 44.2975 13.6568 44.3433V45.1514H14.9245C14.9703 45.1514 15.0079 45.1681 15.037 45.1972C15.0662 45.2264 15.0829 45.2639 15.0829 45.3097V45.8429C15.0829 45.8887 15.0662 45.9262 15.037 45.9554C15.0079 45.9846 14.9703 46.0012 14.9245 46.0012H13.6568V48.1049C13.6568 48.2548 13.6985 48.3756 13.786 48.4631C13.8736 48.5548 13.9904 48.5964 14.1363 48.5964L14.9245 48.6047C14.9703 48.6047 15.0079 48.6214 15.037 48.6506C15.0662 48.6797 15.0829 48.7172 15.0829 48.763V49.2879C15.0829 49.3337 15.0662 49.3712 15.037 49.4004C15.0079 49.4295 14.9703 49.4462 14.9245 49.4462H14.0696C13.6818 49.4462 13.3649 49.3254 13.123 49.088" fill="white"/>
<path d="M16.8678 49.3087C16.5967 49.1504 16.3799 48.938 16.2172 48.6672C16.0588 48.3964 15.9754 48.1048 15.9754 47.7924V46.8135C15.9754 46.4969 16.0546 46.2053 16.2172 45.9387C16.3757 45.6679 16.5925 45.4555 16.8678 45.2972C17.1388 45.1389 17.439 45.0598 17.7643 45.0598C18.0896 45.0598 18.3898 45.1389 18.6609 45.2972C18.9319 45.4555 19.1488 45.6679 19.3114 45.9387C19.4698 46.2095 19.5491 46.5011 19.5491 46.8135V47.7924C19.5491 48.109 19.4698 48.4006 19.3114 48.6672C19.1529 48.938 18.9361 49.1504 18.6609 49.3087C18.3898 49.467 18.0896 49.5462 17.7643 49.5462C17.439 49.5462 17.1388 49.467 16.8678 49.3087ZM18.3898 48.4214C18.5608 48.2506 18.6484 48.0424 18.6484 47.7966V46.8177C18.6484 46.5719 18.5608 46.3636 18.3898 46.1928C18.2188 46.022 18.0103 45.9345 17.7643 45.9345C17.5183 45.9345 17.3098 46.022 17.1388 46.1928C16.9678 46.3636 16.8803 46.5719 16.8803 46.8177V47.7966C16.8803 48.0424 16.9678 48.2506 17.1388 48.4214C17.3098 48.5922 17.5183 48.6797 17.7643 48.6797C18.0103 48.6797 18.2188 48.5922 18.3898 48.4214Z" fill="white"/>
<path d="M21.4381 49.088C21.1962 48.8464 21.0753 48.5339 21.0753 48.1424V45.9929H20.5582C20.5123 45.9929 20.4748 45.9762 20.4456 45.9471C20.4164 45.9179 20.3997 45.8804 20.3997 45.8346V45.3097C20.3997 45.2639 20.4164 45.2264 20.4456 45.1972C20.4748 45.1681 20.5123 45.1514 20.5582 45.1514H21.0753V44.3433C21.0753 44.2975 21.0919 44.26 21.1211 44.2308C21.1503 44.2017 21.1879 44.185 21.2337 44.185H21.8175C21.8634 44.185 21.9009 44.2017 21.9301 44.2308C21.9593 44.26 21.976 44.2975 21.976 44.3433V45.1514H23.2437C23.2895 45.1514 23.3271 45.1681 23.3563 45.1972C23.3855 45.2264 23.4021 45.2639 23.4021 45.3097V45.8429C23.4021 45.8887 23.3855 45.9262 23.3563 45.9554C23.3271 45.9846 23.2895 46.0012 23.2437 46.0012H21.976V48.1049C21.976 48.2548 22.0177 48.3756 22.1053 48.4631C22.1928 48.5548 22.3096 48.5964 22.4555 48.5964L23.2437 48.6047C23.2895 48.6047 23.3271 48.6214 23.3563 48.6506C23.3855 48.6797 23.4021 48.7172 23.4021 48.763V49.2879C23.4021 49.3337 23.3855 49.3712 23.3563 49.4004C23.3271 49.4295 23.2895 49.4462 23.2437 49.4462H22.3888C22.001 49.4462 21.6841 49.3254 21.4422 49.088" fill="white"/>
<path d="M24.7074 49.1921C24.4447 48.9546 24.3154 48.6464 24.3154 48.2673C24.3154 47.9216 24.4363 47.6383 24.674 47.4092C24.9159 47.1842 25.2495 47.0343 25.6873 46.9635C25.7958 46.9551 25.9 46.9385 26.0043 46.9176C26.3545 46.876 26.5672 46.8468 26.6423 46.8302C26.8257 46.801 26.9217 46.6969 26.9217 46.5136C26.9217 46.3303 26.8466 46.1803 26.6923 46.0678C26.538 45.9554 26.3504 45.9012 26.1168 45.9012C25.7124 45.9012 25.4163 46.047 25.2328 46.3428C25.1911 46.4053 25.1452 46.4386 25.091 46.4386C25.0493 46.4386 25.0201 46.4303 24.9951 46.4094L24.5739 46.1262C24.5281 46.097 24.5072 46.0553 24.5072 45.997C24.5072 45.9804 24.5114 45.9595 24.5239 45.9304C24.6699 45.6554 24.8825 45.443 25.1703 45.2889C25.4538 45.1389 25.7791 45.0598 26.1377 45.0598C26.4671 45.0598 26.759 45.1222 27.0092 45.2472C27.2594 45.3722 27.4513 45.5513 27.5889 45.7804C27.7265 46.0095 27.7932 46.2761 27.7932 46.576V49.2962C27.7932 49.342 27.7765 49.3795 27.7473 49.4087C27.7181 49.4378 27.6806 49.4545 27.6347 49.4545H27.126C27.0801 49.4545 27.0426 49.442 27.0134 49.4129C26.9842 49.3837 26.9675 49.3462 26.9675 49.2962V49.0046C26.6214 49.3712 26.2128 49.5503 25.7374 49.5503C25.3162 49.5503 24.9784 49.4337 24.7157 49.1962M26.3545 48.5964C26.5297 48.4964 26.6715 48.3673 26.7799 48.2048C26.8883 48.0424 26.9425 47.8716 26.9425 47.6924V47.5425L26.3796 47.6258C26.0751 47.6591 25.875 47.6883 25.7874 47.7091C25.3788 47.7841 25.1703 47.959 25.1703 48.2423C25.1703 48.3964 25.2286 48.5214 25.3412 48.613C25.458 48.7047 25.6081 48.7505 25.7999 48.7505C25.9917 48.7505 26.1794 48.7005 26.3545 48.6006" fill="white"/>
<path d="M29.1901 49.1921C28.9274 48.9546 28.7982 48.6464 28.7982 48.2673C28.7982 47.9216 28.9191 47.6383 29.1568 47.4092C29.3986 47.1842 29.7322 47.0343 30.1701 46.9635C30.2785 46.9551 30.3828 46.9385 30.487 46.9176C30.8373 46.876 31.05 46.8468 31.125 46.8302C31.3085 46.801 31.4044 46.6969 31.4044 46.5136C31.4044 46.3303 31.3294 46.1803 31.1751 46.0678C31.0208 45.9554 30.8331 45.9012 30.5996 45.9012C30.1951 45.9012 29.899 46.047 29.7156 46.3428C29.6739 46.4053 29.628 46.4386 29.5738 46.4386C29.5321 46.4386 29.5029 46.4303 29.4779 46.4094L29.0567 46.1262C29.0108 46.097 28.99 46.0553 28.99 45.997C28.99 45.9804 28.9941 45.9595 29.0067 45.9304C29.1526 45.6554 29.3653 45.443 29.653 45.2889C29.9366 45.1389 30.2618 45.0598 30.6205 45.0598C30.9499 45.0598 31.2418 45.1222 31.492 45.2472C31.7422 45.3722 31.934 45.5513 32.0716 45.7804C32.2092 46.0095 32.276 46.2761 32.276 46.576V49.2962C32.276 49.342 32.2593 49.3795 32.2301 49.4087C32.2009 49.4378 32.1634 49.4545 32.1175 49.4545H31.6088C31.5629 49.4545 31.5253 49.442 31.4962 49.4129C31.467 49.3837 31.4503 49.3462 31.4503 49.2962V49.0046C31.1042 49.3712 30.6955 49.5503 30.2201 49.5503C29.799 49.5503 29.4612 49.4337 29.1985 49.1962M30.8373 48.5964C31.0124 48.4964 31.1542 48.3673 31.2626 48.2048C31.3711 48.0424 31.4253 47.8716 31.4253 47.6924V47.5425L30.8623 47.6258C30.5579 47.6591 30.3619 47.6883 30.2702 47.7091C29.8615 47.7841 29.653 47.959 29.653 48.2423C29.653 48.3964 29.7114 48.5214 29.824 48.613C29.9407 48.7047 30.0909 48.7505 30.2827 48.7505C30.4745 48.7505 30.6622 48.7005 30.8373 48.6006" fill="white"/>
<path d="M33.7938 49.3546C33.7313 49.2921 33.6979 49.2171 33.6979 49.1255V44.5808H33.0141C32.9682 44.5808 32.9307 44.5641 32.9015 44.5349C32.8723 44.5058 32.8556 44.4683 32.8556 44.4225V43.8684C32.8556 43.8226 32.8723 43.7851 32.9015 43.756C32.9307 43.7268 32.9682 43.7101 33.0141 43.7101H34.2734C34.3651 43.7101 34.4402 43.7435 34.5027 43.806C34.5653 43.8684 34.5945 43.9434 34.5945 44.0351V48.5798H35.2784C35.3242 48.5798 35.3618 48.5964 35.391 48.6256C35.4202 48.6548 35.4368 48.6923 35.4368 48.7381V49.2921C35.4368 49.3379 35.4202 49.3754 35.391 49.4046C35.3618 49.4337 35.3242 49.4504 35.2784 49.4504H34.019C33.9273 49.4504 33.8522 49.4171 33.7897 49.3546" fill="white"/>
<path d="M36.6878 49.3546C36.6253 49.2921 36.5919 49.2171 36.5919 49.1255V44.5808H35.908C35.8622 44.5808 35.8246 44.5641 35.7954 44.5349C35.7662 44.5058 35.7496 44.4683 35.7496 44.4225V43.8684C35.7496 43.8226 35.7662 43.7851 35.7954 43.756C35.8246 43.7268 35.8622 43.7101 35.908 43.7101H37.1674C37.2591 43.7101 37.3342 43.7435 37.3967 43.806C37.4593 43.8684 37.4926 43.9434 37.4926 44.0351V48.5798H38.1765C38.2224 48.5798 38.2599 48.5964 38.2891 48.6256C38.3183 48.6548 38.335 48.6923 38.335 48.7381V49.2921C38.335 49.3379 38.3183 49.3754 38.2891 49.4046C38.2599 49.4337 38.2224 49.4504 38.1765 49.4504H36.9172C36.8254 49.4504 36.7504 49.4171 36.6878 49.3546Z" fill="white"/>
<path d="M40.0114 49.2087C39.7403 49.0504 39.5235 48.8338 39.365 48.5589C39.2024 48.284 39.1231 47.984 39.1231 47.6591V46.851C39.1231 46.5261 39.2024 46.2261 39.365 45.9512C39.5235 45.6763 39.7403 45.4597 40.0114 45.3014C40.2824 45.1431 40.5826 45.0598 40.9079 45.0598C41.2332 45.0598 41.5292 45.1389 41.8045 45.3014C42.0755 45.4597 42.2924 45.6763 42.455 45.9512C42.6134 46.2261 42.6927 46.5261 42.6927 46.851V47.3509C42.6927 47.4425 42.6635 47.5175 42.6009 47.58C42.5384 47.6425 42.4633 47.6758 42.3716 47.6758H40.0239V47.7133C40.0239 47.959 40.1114 48.1673 40.2824 48.3381C40.4534 48.5089 40.6619 48.5964 40.9079 48.5964H42.1005C42.1464 48.5964 42.1839 48.613 42.2131 48.6422C42.2423 48.6714 42.259 48.7089 42.259 48.7547V49.2921C42.259 49.3379 42.2423 49.3754 42.2131 49.4045C42.1839 49.4337 42.1464 49.4503 42.1005 49.4503H40.9079C40.5826 49.4503 40.2824 49.3712 40.0114 49.2087ZM41.792 46.8635V46.7968C41.792 46.5511 41.7044 46.3428 41.5334 46.172C41.3583 46.0012 41.1498 45.9137 40.9079 45.9137C40.666 45.9137 40.4534 46.0012 40.2824 46.172C40.1114 46.3428 40.0239 46.5511 40.0239 46.7968V46.8635H41.792Z" fill="white"/>
<path d="M45.0112 49.492C44.8944 49.492 44.8194 49.4379 44.7777 49.3337L43.3932 45.393C43.3807 45.3639 43.3765 45.3389 43.3765 45.3264C43.3765 45.2764 43.3932 45.2347 43.4266 45.2014C43.4599 45.1681 43.5058 45.1514 43.56 45.1514H44.0854C44.1355 45.1514 44.1813 45.1681 44.223 45.1973C44.2647 45.2264 44.2939 45.2681 44.3106 45.3181L45.3239 48.3298L46.3372 45.3181C46.3539 45.2681 46.3789 45.2264 46.4248 45.1973C46.4665 45.1681 46.5124 45.1514 46.5624 45.1514H47.0503C47.1045 45.1514 47.1504 45.1681 47.1838 45.2014C47.2171 45.2347 47.2338 45.2764 47.2338 45.3264C47.2338 45.343 47.2296 45.3639 47.2171 45.393L45.8285 49.3337C45.8076 49.3837 45.7785 49.4254 45.7368 49.4545C45.6951 49.4837 45.6492 49.5004 45.5991 49.5004L45.007 49.492H45.0112Z" fill="white"/>
<path d="M48.8476 49.2087C48.5765 49.0504 48.3597 48.8338 48.2012 48.5589C48.0427 48.284 47.9594 47.984 47.9594 47.6591V46.851C47.9594 46.5261 48.0386 46.2261 48.2012 45.9512C48.3638 45.6763 48.5765 45.4597 48.8476 45.3014C49.1186 45.1431 49.4189 45.0598 49.7441 45.0598C50.0694 45.0598 50.3655 45.1389 50.6407 45.3014C50.9117 45.4597 51.1286 45.6763 51.2912 45.9512C51.4497 46.2261 51.5331 46.5261 51.5331 46.851V47.3509C51.5331 47.4425 51.4997 47.5175 51.4371 47.58C51.3746 47.6425 51.2995 47.6758 51.2078 47.6758H48.8601V47.7133C48.8601 47.959 48.9476 48.1673 49.1186 48.3381C49.2896 48.5089 49.4981 48.5964 49.7441 48.5964H50.9367C50.9826 48.5964 51.0201 48.613 51.0493 48.6422C51.0785 48.6714 51.0952 48.7089 51.0952 48.7547V49.2921C51.0952 49.3379 51.0785 49.3754 51.0493 49.4045C51.0201 49.4337 50.9826 49.4503 50.9367 49.4503H49.7441C49.4189 49.4503 49.1186 49.3712 48.8476 49.2087ZM50.6282 46.8635V46.7968C50.6282 46.5511 50.5406 46.3428 50.3696 46.172C50.1987 46.0012 49.986 45.9137 49.7441 45.9137C49.5023 45.9137 49.2896 46.0012 49.1186 46.172C48.9476 46.3428 48.8601 46.5511 48.8601 46.7968V46.8635H50.6282Z" fill="white"/>
<path d="M52.5047 49.4045C52.4755 49.3754 52.4588 49.3379 52.4588 49.2921V48.738C52.4588 48.6922 52.4755 48.6547 52.5047 48.6256C52.5338 48.5964 52.5714 48.5797 52.6172 48.5797H53.1885V46.0054H52.5422C52.4963 46.0054 52.4588 45.9887 52.4296 45.9595C52.4004 45.9304 52.3837 45.8929 52.3837 45.8471V45.3139C52.3837 45.2681 52.4004 45.2306 52.4296 45.2014C52.4588 45.1722 52.4963 45.1556 52.5422 45.1556H53.7056C53.7974 45.1556 53.8724 45.1889 53.935 45.2472C53.9975 45.3097 54.0267 45.3847 54.0267 45.4763V45.7471L54.4312 45.4263C54.5813 45.3055 54.7106 45.2222 54.819 45.1764C54.9274 45.1306 55.0567 45.1056 55.2068 45.1056H55.4403C55.4862 45.1056 55.5238 45.1223 55.5529 45.1514C55.5821 45.1806 55.5988 45.2181 55.5988 45.2639V45.8387C55.5988 45.8846 55.5821 45.9221 55.5529 45.9512C55.5238 45.9804 55.4862 45.997 55.4403 45.997H55.2444C55.1151 45.997 55.0025 46.0179 54.9066 46.0637C54.8107 46.1095 54.6647 46.2095 54.4729 46.3636L54.0601 46.6927V48.5797H54.8023C54.8482 48.5797 54.8857 48.5964 54.9149 48.6256C54.9441 48.6547 54.9608 48.6922 54.9608 48.738V49.2921C54.9608 49.3379 54.9441 49.3754 54.9149 49.4045C54.8857 49.4337 54.8482 49.4504 54.8023 49.4504H52.6131C52.5672 49.4504 52.5297 49.4337 52.5005 49.4045" fill="white"/>
<path d="M56.7456 49.1921C56.4829 48.9546 56.3536 48.6464 56.3536 48.2673C56.3536 47.9216 56.4745 47.6383 56.7122 47.4092C56.9541 47.1842 57.2919 47.0343 57.7255 46.9635C57.834 46.9551 57.9382 46.9385 58.0425 46.9176C58.3927 46.876 58.6054 46.8468 58.6805 46.8302C58.864 46.801 58.9599 46.6969 58.9599 46.5136C58.9599 46.3303 58.8848 46.1803 58.7305 46.0678C58.5762 45.9554 58.3886 45.9012 58.1551 45.9012C57.7506 45.9012 57.4545 46.047 57.271 46.3428C57.2293 46.4053 57.1834 46.4386 57.1292 46.4386C57.0875 46.4386 57.0583 46.4303 57.0333 46.4094L56.6121 46.1262C56.5663 46.097 56.5454 46.0553 56.5454 45.997C56.5454 45.9804 56.5496 45.9595 56.5621 45.9304C56.7081 45.6554 56.9207 45.443 57.2085 45.2889C57.492 45.1389 57.8173 45.0598 58.1759 45.0598C58.5053 45.0598 58.7972 45.1222 59.0474 45.2472C59.2976 45.3722 59.4895 45.5513 59.6271 45.7804C59.7647 46.0095 59.8314 46.2761 59.8314 46.576V49.2962C59.8314 49.342 59.8147 49.3795 59.7855 49.4087C59.7563 49.4378 59.7188 49.4545 59.6729 49.4545H59.1642C59.1183 49.4545 59.0808 49.442 59.0516 49.4129C59.0224 49.3837 59.0057 49.3462 59.0057 49.2962V49.0046C58.6596 49.3712 58.251 49.5503 57.7756 49.5503C57.3544 49.5503 57.0166 49.4337 56.7539 49.1962M58.3886 48.5964C58.5637 48.4964 58.7055 48.3673 58.8139 48.2048C58.9223 48.0424 58.9765 47.8716 58.9765 47.6924V47.5425L58.4136 47.6258C58.1092 47.6591 57.9132 47.6883 57.8215 47.7091C57.4128 47.7841 57.2043 47.959 57.2043 48.2423C57.2043 48.3964 57.2627 48.5214 57.3753 48.613C57.492 48.7047 57.6421 48.7505 57.834 48.7505C58.0258 48.7505 58.2134 48.7005 58.3886 48.6006" fill="white"/>
<path d="M61.1324 49.4045C61.1033 49.3754 61.0866 49.3379 61.0866 49.2921V45.3139C61.0866 45.268 61.1033 45.2305 61.1324 45.2014C61.1616 45.1722 61.1992 45.1556 61.245 45.1556H61.8288C61.8747 45.1556 61.9122 45.1722 61.9414 45.2014C61.9706 45.2305 61.9873 45.268 61.9873 45.3139V45.6679C62.1249 45.4763 62.2959 45.3305 62.4877 45.2222C62.6795 45.1139 62.8922 45.0598 63.1215 45.0598C63.4051 45.0598 63.6637 45.1264 63.8888 45.2639C64.114 45.3972 64.2933 45.5846 64.4268 45.8262C64.556 46.0637 64.6228 46.3344 64.6228 46.6344V49.2921C64.6228 49.3379 64.6061 49.3754 64.5769 49.4045C64.5477 49.4337 64.5102 49.4503 64.4643 49.4503H63.8805C63.8346 49.4503 63.7971 49.4337 63.7679 49.4045C63.7387 49.3754 63.722 49.3379 63.722 49.2921V46.7468C63.722 46.4802 63.6553 46.2803 63.5177 46.1345C63.3843 45.9929 63.1924 45.922 62.9464 45.922C62.6503 45.922 62.4168 46.0179 62.2458 46.2095C62.0749 46.4011 61.9873 46.6635 61.9873 47.0009V49.2921C61.9873 49.3379 61.9706 49.3754 61.9414 49.4045C61.9122 49.4337 61.8747 49.4503 61.8288 49.4503H61.245C61.1992 49.4503 61.1616 49.4337 61.1324 49.4045Z" fill="white"/>
<path d="M66.6118 49.3088C66.3408 49.1505 66.124 48.9339 65.9613 48.6548C65.8029 48.3798 65.7236 48.0799 65.7236 47.755V46.8469C65.7236 46.522 65.8029 46.222 65.9613 45.9471C66.1198 45.6722 66.3366 45.4556 66.6118 45.2973C66.8871 45.139 67.1831 45.0557 67.5084 45.0557C67.7586 45.0557 68.0005 45.1056 68.2298 45.2098C68.4592 45.3139 68.6552 45.4556 68.822 45.6389C68.8553 45.6722 68.8762 45.7138 68.8762 45.7597C68.8762 45.8138 68.8553 45.8638 68.8094 45.9096L68.4884 46.2304C68.455 46.2637 68.4133 46.2804 68.3674 46.2804C68.3216 46.2804 68.2799 46.2595 68.2382 46.2137C68.0422 46.0179 67.8003 45.9221 67.5126 45.9221C67.2665 45.9221 67.058 46.0096 66.8871 46.1804C66.7161 46.3512 66.6285 46.5595 66.6285 46.8052V47.7883C66.6285 48.0341 66.7161 48.2424 66.8871 48.4132C67.058 48.584 67.2665 48.6714 67.5126 48.6714C67.8045 48.6714 68.0463 48.5756 68.2382 48.3798C68.2799 48.334 68.3216 48.3132 68.3674 48.3132C68.4133 48.3132 68.4508 48.3299 68.4884 48.3674L68.8094 48.6881C68.8553 48.7339 68.8762 48.7839 68.8762 48.8381C68.8762 48.8839 68.8595 48.9214 68.822 48.9589C68.6552 49.1422 68.4592 49.288 68.2298 49.3879C68.0005 49.4921 67.7586 49.5421 67.5084 49.5421C67.1831 49.5421 66.8871 49.4629 66.6118 49.3005" fill="white"/>
<path d="M70.6818 49.3421C70.6109 49.2712 70.5734 49.1796 70.5734 49.0754V46.0137H69.9646C69.9187 46.0137 69.8812 45.997 69.852 45.9679C69.8228 45.9387 69.8061 45.9012 69.8061 45.8554V45.318C69.8061 45.2722 69.8228 45.2347 69.852 45.2056C69.8812 45.1764 69.9187 45.1597 69.9646 45.1597H71.0988C71.2031 45.1597 71.2906 45.1972 71.3657 45.268C71.4366 45.343 71.4741 45.4305 71.4741 45.5346V48.5964H72.0829C72.1288 48.5964 72.1663 48.6131 72.1955 48.6422C72.2247 48.6714 72.2414 48.7089 72.2414 48.7547V49.2921C72.2414 49.3379 72.2247 49.3754 72.1955 49.4045C72.1663 49.4337 72.1288 49.4504 72.0829 49.4504H70.9528C70.8486 49.4504 70.7569 49.4129 70.686 49.3421M70.6568 44.6099C70.6276 44.5807 70.6109 44.5432 70.6109 44.4974V43.6809C70.6109 43.6351 70.6276 43.5976 70.6568 43.5685C70.686 43.5393 70.7235 43.5226 70.7694 43.5226H71.2781C71.324 43.5226 71.3615 43.5393 71.3907 43.5685C71.4199 43.5976 71.4366 43.6351 71.4366 43.6809V44.4974C71.4366 44.5432 71.4199 44.5807 71.3907 44.6099C71.3615 44.639 71.324 44.6557 71.2781 44.6557H70.7694C70.7235 44.6557 70.686 44.639 70.6568 44.6099Z" fill="white"/>
<path d="M73.9261 49.2087C73.655 49.0504 73.4382 48.8338 73.2797 48.5589C73.1213 48.284 73.0379 47.984 73.0379 47.6591V46.851C73.0379 46.5261 73.1171 46.2261 73.2797 45.9512C73.4424 45.6763 73.655 45.4597 73.9261 45.3014C74.1971 45.1431 74.4974 45.0598 74.8226 45.0598C75.1479 45.0598 75.444 45.1389 75.7192 45.3014C75.9902 45.4597 76.2071 45.6763 76.3697 45.9512C76.5282 46.2261 76.6116 46.5261 76.6116 46.851V47.3509C76.6116 47.4425 76.5782 47.5175 76.5157 47.58C76.4531 47.6425 76.3781 47.6758 76.2863 47.6758H73.9386V47.7133C73.9386 47.959 74.0262 48.1673 74.1971 48.3381C74.3681 48.5089 74.5766 48.5964 74.8226 48.5964H76.0153C76.0611 48.5964 76.0987 48.613 76.1279 48.6422C76.157 48.6714 76.1737 48.7089 76.1737 48.7547V49.2921C76.1737 49.3379 76.157 49.3754 76.1279 49.4045C76.0987 49.4337 76.0611 49.4503 76.0153 49.4503H74.8226C74.4974 49.4503 74.1971 49.3712 73.9261 49.2087ZM75.7067 46.8635V46.7968C75.7067 46.5511 75.6191 46.3428 75.4481 46.172C75.2772 46.0012 75.0645 45.9137 74.8226 45.9137C74.5808 45.9137 74.3681 46.0012 74.1971 46.172C74.0262 46.3428 73.9386 46.5511 73.9386 46.7968V46.8635H75.7067Z" fill="white"/>
<path d="M77.5832 49.4045C77.554 49.3754 77.5373 49.3379 77.5373 49.2921V48.738C77.5373 48.6922 77.554 48.6547 77.5832 48.6256C77.6123 48.5964 77.6499 48.5797 77.6957 48.5797H78.267V46.0054H77.6207C77.5748 46.0054 77.5373 45.9887 77.5081 45.9595C77.4789 45.9304 77.4622 45.8929 77.4622 45.8471V45.3139C77.4622 45.2681 77.4789 45.2306 77.5081 45.2014C77.5373 45.1722 77.5748 45.1556 77.6207 45.1556H78.7841C78.8717 45.1556 78.9509 45.1889 79.0135 45.2472C79.076 45.3097 79.1094 45.3847 79.1094 45.4763V45.7471L79.5139 45.4263C79.664 45.3055 79.7933 45.2222 79.9017 45.1764C80.0101 45.1306 80.1435 45.1056 80.2895 45.1056H80.523C80.5689 45.1056 80.6064 45.1223 80.6356 45.1514C80.6648 45.1806 80.6815 45.2181 80.6815 45.2639V45.8387C80.6815 45.8846 80.6648 45.9221 80.6356 45.9512C80.6064 45.9804 80.5689 45.997 80.523 45.997H80.327C80.1978 45.997 80.0852 46.0179 79.9893 46.0637C79.8933 46.1095 79.7474 46.2095 79.5556 46.3636L79.1427 46.6927V48.5797H79.885C79.9309 48.5797 79.9684 48.5964 79.9976 48.6256C80.0268 48.6547 80.0435 48.6922 80.0435 48.738V49.2921C80.0435 49.3379 80.0268 49.3754 79.9976 49.4045C79.9684 49.4337 79.9309 49.4504 79.885 49.4504H77.6957C77.6499 49.4504 77.6123 49.4337 77.5832 49.4045Z" fill="white"/>
<path d="M85.0517 49.492C84.9349 49.492 84.8599 49.4379 84.8182 49.3337L83.4337 45.393C83.4254 45.3639 83.4171 45.3389 83.4171 45.3264C83.4171 45.2764 83.4337 45.2347 83.4671 45.2014C83.5005 45.1681 83.5463 45.1514 83.6005 45.1514H84.126C84.176 45.1514 84.2219 45.1681 84.2636 45.1973C84.3053 45.2264 84.3345 45.2681 84.3511 45.3181L85.3645 48.3298L86.3778 45.3181C86.3944 45.2681 86.4195 45.2264 86.4653 45.1973C86.507 45.1681 86.5529 45.1514 86.6029 45.1514H87.0908C87.1451 45.1514 87.1909 45.1681 87.2243 45.2014C87.2576 45.2347 87.2743 45.2764 87.2743 45.3264C87.2743 45.343 87.2702 45.3639 87.2576 45.393L85.869 49.3337C85.8482 49.3837 85.819 49.4254 85.7731 49.4545C85.7314 49.4837 85.6855 49.5004 85.6355 49.5004L85.0434 49.492H85.0517Z" fill="white"/>
<path d="M88.8881 49.3087C88.6171 49.1504 88.4002 48.938 88.2418 48.6672C88.0833 48.3964 87.9999 48.1048 87.9999 47.7924V46.8135C87.9999 46.4969 88.0791 46.2053 88.2418 45.9387C88.4002 45.6679 88.6171 45.4555 88.8881 45.2972C89.1592 45.1389 89.4594 45.0598 89.7847 45.0598C90.1099 45.0598 90.406 45.1389 90.6812 45.2972C90.9523 45.4555 91.1691 45.6679 91.3276 45.9387C91.486 46.2095 91.5694 46.5011 91.5694 46.8135V47.7924C91.5694 48.109 91.4902 48.4006 91.3276 48.6672C91.1691 48.938 90.9523 49.1504 90.6812 49.3087C90.4102 49.467 90.1099 49.5462 89.7847 49.5462C89.4594 49.5462 89.1592 49.467 88.8881 49.3087ZM90.4102 48.4214C90.5811 48.2506 90.6687 48.0424 90.6687 47.7966V46.8177C90.6687 46.5719 90.5811 46.3636 90.4102 46.1928C90.2392 46.022 90.0307 45.9345 89.7847 45.9345C89.5386 45.9345 89.3301 46.022 89.1592 46.1928C88.9882 46.3636 88.9006 46.5719 88.9006 46.8177V47.7966C88.9006 48.0424 88.9882 48.2506 89.1592 48.4214C89.3301 48.5922 89.5386 48.6797 89.7847 48.6797C90.0307 48.6797 90.2392 48.5922 90.4102 48.4214Z" fill="white"/>
<path d="M93.4835 49.3087C93.2125 49.1504 92.9956 48.938 92.8372 48.6672C92.6787 48.3964 92.5953 48.1048 92.5953 47.7924V46.8135C92.5953 46.4969 92.6745 46.2053 92.8372 45.9387C92.9956 45.6679 93.2125 45.4555 93.4835 45.2972C93.7546 45.1389 94.0548 45.0598 94.3801 45.0598C94.7053 45.0598 95.0056 45.1389 95.2766 45.2972C95.5477 45.4555 95.7645 45.6679 95.923 45.9387C96.0814 46.2095 96.1648 46.5011 96.1648 46.8135V47.7924C96.1648 48.109 96.0856 48.4006 95.923 48.6672C95.7645 48.938 95.5477 49.1504 95.2766 49.3087C95.0056 49.467 94.7053 49.5462 94.3801 49.5462C94.0548 49.5462 93.7587 49.467 93.4835 49.3087ZM95.0056 48.4214C95.1765 48.2506 95.2641 48.0424 95.2641 47.7966V46.8177C95.2641 46.5719 95.1765 46.3636 95.0056 46.1928C94.8346 46.022 94.6261 45.9345 94.3801 45.9345C94.134 45.9345 93.9255 46.022 93.7546 46.1928C93.5836 46.3636 93.496 46.5719 93.496 46.8177V47.7966C93.496 48.0424 93.5836 48.2506 93.7546 48.4214C93.9255 48.5922 94.134 48.6797 94.3801 48.6797C94.6261 48.6797 94.8346 48.5922 95.0056 48.4214Z" fill="white"/>
<path d="M97.174 49.4045C97.1448 49.3754 97.1281 49.3379 97.1281 49.2921V48.738C97.1281 48.6922 97.1448 48.6547 97.174 48.6256C97.2032 48.5964 97.2407 48.5797 97.2866 48.5797H97.8579V46.0054H97.2115C97.1656 46.0054 97.1281 45.9887 97.0989 45.9595C97.0697 45.9304 97.053 45.8929 97.053 45.8471V45.3139C97.053 45.2681 97.0697 45.2306 97.0989 45.2014C97.1281 45.1722 97.1656 45.1556 97.2115 45.1556H98.3749C98.4625 45.1556 98.5417 45.1889 98.6043 45.2472C98.6668 45.3097 98.7002 45.3847 98.7002 45.4763V45.7471L99.1047 45.4263C99.2548 45.3055 99.3841 45.2222 99.4925 45.1764C99.6009 45.1306 99.7344 45.1056 99.8803 45.1056H100.114C100.16 45.1056 100.197 45.1223 100.226 45.1514C100.256 45.1806 100.272 45.2181 100.272 45.2639V45.8387C100.272 45.8846 100.256 45.9221 100.226 45.9512C100.197 45.9804 100.16 45.997 100.114 45.997H99.9178C99.7886 45.997 99.676 46.0179 99.5801 46.0637C99.4842 46.1095 99.3382 46.2095 99.1464 46.3636L98.7336 46.6927V48.5797H99.4758C99.5217 48.5797 99.5592 48.5964 99.5884 48.6256C99.6176 48.6547 99.6343 48.6922 99.6343 48.738V49.2921C99.6343 49.3379 99.6176 49.3754 99.5884 49.4045C99.5592 49.4337 99.5217 49.4504 99.4758 49.4504H97.2866C97.2407 49.4504 97.2032 49.4337 97.174 49.4045Z" fill="white"/>
<path d="M104.109 49.3087C103.854 49.1504 103.65 48.9422 103.5 48.6755C103.35 48.4089 103.27 48.1257 103.27 47.8216V46.7802C103.27 46.4761 103.346 46.1928 103.496 45.9262C103.646 45.6638 103.846 45.4513 104.1 45.293C104.355 45.1348 104.634 45.0556 104.934 45.0556C105.126 45.0556 105.31 45.0848 105.485 45.1472C105.664 45.2056 105.814 45.293 105.948 45.4014V43.8642C105.948 43.8184 105.964 43.7809 105.993 43.7518C106.023 43.7226 106.06 43.7059 106.106 43.7059H106.69C106.736 43.7059 106.773 43.7226 106.802 43.7518C106.832 43.7809 106.848 43.8184 106.848 43.8642V49.2879C106.848 49.3337 106.836 49.3712 106.802 49.4004C106.773 49.4295 106.736 49.4462 106.69 49.4462H106.202C106.156 49.4462 106.119 49.4295 106.089 49.4004C106.06 49.3712 106.044 49.3337 106.044 49.2879V48.9297C105.91 49.1338 105.747 49.2879 105.556 49.392C105.364 49.492 105.155 49.5462 104.926 49.5462C104.638 49.5462 104.363 49.467 104.109 49.3087ZM105.681 48.4256C105.856 48.2548 105.943 48.0465 105.943 47.8008V46.8052C105.943 46.5594 105.856 46.3511 105.681 46.1803C105.506 46.0095 105.297 45.9221 105.051 45.9221C104.805 45.9221 104.597 46.0095 104.426 46.1803C104.255 46.3511 104.167 46.5594 104.167 46.8052V47.8008C104.167 48.0465 104.255 48.2548 104.426 48.4256C104.597 48.5964 104.805 48.6839 105.051 48.6839C105.297 48.6839 105.506 48.5964 105.681 48.4256Z" fill="white"/>
<path d="M108.9 49.2087C108.629 49.0504 108.412 48.8338 108.249 48.5589C108.091 48.284 108.008 47.984 108.008 47.6591V46.851C108.008 46.5261 108.087 46.2261 108.249 45.9512C108.412 45.6763 108.625 45.4597 108.9 45.3014C109.171 45.1431 109.471 45.0598 109.797 45.0598C110.122 45.0598 110.418 45.1389 110.693 45.3014C110.964 45.4597 111.181 45.6763 111.339 45.9512C111.498 46.2261 111.581 46.5261 111.581 46.851V47.3509C111.581 47.4425 111.552 47.5175 111.49 47.58C111.427 47.6425 111.352 47.6758 111.26 47.6758H108.913V47.7133C108.913 47.959 109 48.1673 109.171 48.3381C109.342 48.5089 109.551 48.5964 109.797 48.5964H110.989C111.035 48.5964 111.073 48.613 111.102 48.6422C111.131 48.6714 111.148 48.7089 111.148 48.7547V49.2921C111.148 49.3379 111.131 49.3754 111.102 49.4045C111.073 49.4337 111.035 49.4503 110.989 49.4503H109.797C109.471 49.4503 109.171 49.3712 108.9 49.2087ZM110.681 46.8635V46.7968C110.681 46.5511 110.593 46.3428 110.422 46.172C110.251 46.0012 110.038 45.9137 109.797 45.9137C109.555 45.9137 109.342 46.0012 109.171 46.172C109 46.3428 108.913 46.5511 108.913 46.7968V46.8635H110.681Z" fill="white"/>
<path d="M115.376 49.3546C115.314 49.2921 115.28 49.2171 115.28 49.1255V44.5808H114.596C114.55 44.5808 114.513 44.5641 114.484 44.5349C114.455 44.5058 114.438 44.4683 114.438 44.4225V43.8684C114.438 43.8226 114.455 43.7851 114.484 43.756C114.513 43.7268 114.55 43.7101 114.596 43.7101H115.856C115.947 43.7101 116.022 43.7435 116.085 43.806C116.148 43.8684 116.181 43.9434 116.181 44.0351V48.5798H116.865C116.911 48.5798 116.948 48.5964 116.977 48.6256C117.007 48.6548 117.023 48.6923 117.023 48.7381V49.2921C117.023 49.3379 117.007 49.3754 116.977 49.4046C116.948 49.4337 116.911 49.4504 116.865 49.4504H115.605C115.514 49.4504 115.439 49.4171 115.376 49.3546Z" fill="white"/>
<path d="M118.729 49.3087C118.458 49.1504 118.241 48.938 118.082 48.6672C117.924 48.3964 117.841 48.1048 117.841 47.7924V46.8135C117.841 46.4969 117.92 46.2053 118.082 45.9387C118.241 45.6679 118.458 45.4555 118.729 45.2972C119 45.1389 119.3 45.0598 119.625 45.0598C119.951 45.0598 120.247 45.1389 120.522 45.2972C120.793 45.4555 121.01 45.6679 121.172 45.9387C121.331 46.2095 121.414 46.5011 121.414 46.8135V47.7924C121.414 48.109 121.335 48.4006 121.172 48.6672C121.014 48.938 120.797 49.1504 120.522 49.3087C120.251 49.467 119.951 49.5462 119.625 49.5462C119.3 49.5462 119 49.467 118.729 49.3087ZM120.251 48.4214C120.422 48.2506 120.509 48.0424 120.509 47.7966V46.8177C120.509 46.5719 120.422 46.3636 120.251 46.1928C120.08 46.022 119.871 45.9345 119.625 45.9345C119.379 45.9345 119.171 46.022 119 46.1928C118.829 46.3636 118.741 46.5719 118.741 46.8177V47.7966C118.741 48.0424 118.829 48.2506 119 48.4214C119.171 48.5922 119.379 48.6797 119.625 48.6797C119.871 48.6797 120.08 48.5922 120.251 48.4214Z" fill="white"/>
<path d="M122.907 50.7334C122.611 50.5543 122.461 50.2793 122.461 49.9044C122.461 49.6295 122.557 49.3921 122.744 49.1921C122.565 49.0463 122.473 48.8464 122.473 48.5923C122.473 48.4215 122.515 48.2632 122.599 48.109C122.682 47.9549 122.795 47.8258 122.94 47.7175C122.778 47.5842 122.657 47.4175 122.569 47.2259C122.482 47.0343 122.44 46.8219 122.44 46.5927C122.44 46.2886 122.515 46.0179 122.661 45.7846C122.807 45.5513 123.007 45.368 123.262 45.2431C123.512 45.1139 123.791 45.0515 124.096 45.0515C124.317 45.0515 124.525 45.0848 124.725 45.1556H126.201C126.247 45.1556 126.285 45.1723 126.314 45.2014C126.343 45.2306 126.36 45.2681 126.36 45.3139V45.8096C126.36 45.8554 126.343 45.8929 126.314 45.9221C126.285 45.9512 126.247 45.9679 126.201 45.9679H125.618C125.701 46.1637 125.743 46.372 125.743 46.5969C125.743 46.8968 125.668 47.1634 125.522 47.3925C125.376 47.6258 125.176 47.8049 124.925 47.9299C124.675 48.059 124.396 48.1215 124.091 48.1215C123.862 48.1215 123.633 48.0799 123.408 48.0007C123.303 48.1049 123.249 48.2173 123.249 48.3298C123.249 48.4298 123.287 48.4964 123.362 48.5339C123.437 48.5714 123.545 48.5964 123.691 48.6047C123.891 48.6131 124.091 48.6214 124.3 48.6214L124.638 48.6297C125.059 48.6381 125.401 48.7131 125.659 48.8547C125.922 48.9963 126.051 49.2588 126.051 49.6503C126.051 50.1002 125.872 50.4376 125.509 50.6626C125.146 50.8875 124.675 51 124.096 51C123.595 51 123.199 50.9125 122.899 50.7334M125.142 49.7628C125.142 49.6337 125.092 49.5503 124.996 49.5087C124.9 49.467 124.763 49.4504 124.588 49.4504H123.854C123.67 49.4504 123.516 49.442 123.395 49.4295C123.341 49.5212 123.312 49.6253 123.312 49.7461C123.312 49.9378 123.387 50.0627 123.533 50.1335C123.679 50.2002 123.891 50.2335 124.166 50.2335C124.817 50.2335 125.142 50.0794 125.142 49.767M124.65 47.1343C124.784 47.001 124.85 46.8177 124.85 46.5969C124.85 46.3761 124.784 46.1887 124.65 46.0512C124.517 45.9096 124.329 45.8429 124.096 45.8429C123.862 45.8429 123.674 45.9137 123.537 46.0512C123.399 46.1887 123.332 46.372 123.332 46.5969C123.332 46.8219 123.399 47.001 123.537 47.1343C123.674 47.2676 123.862 47.3384 124.096 47.3384C124.329 47.3384 124.517 47.2717 124.65 47.1343Z" fill="white"/>
<path d="M128.053 49.3421C127.982 49.2712 127.944 49.1796 127.944 49.0754V46.0137H127.336C127.29 46.0137 127.252 45.997 127.223 45.9679C127.194 45.9387 127.177 45.9012 127.177 45.8554V45.318C127.177 45.2722 127.194 45.2347 127.223 45.2056C127.252 45.1764 127.29 45.1597 127.336 45.1597H128.466C128.57 45.1597 128.658 45.1972 128.733 45.268C128.804 45.343 128.841 45.4305 128.841 45.5346V48.5964H129.45C129.496 48.5964 129.533 48.6131 129.562 48.6422C129.592 48.6714 129.608 48.7089 129.608 48.7547V49.2921C129.608 49.3379 129.592 49.3754 129.562 49.4045C129.533 49.4337 129.496 49.4504 129.45 49.4504H128.32C128.216 49.4504 128.128 49.4129 128.053 49.3421ZM128.028 44.6099C127.999 44.5807 127.982 44.5432 127.982 44.4974V43.6809C127.982 43.6351 127.999 43.5976 128.028 43.5685C128.057 43.5393 128.095 43.5226 128.14 43.5226H128.649C128.695 43.5226 128.733 43.5393 128.762 43.5685C128.791 43.5976 128.808 43.6351 128.808 43.6809V44.4974C128.808 44.5432 128.791 44.5807 128.762 44.6099C128.733 44.639 128.695 44.6557 128.649 44.6557H128.14C128.095 44.6557 128.057 44.639 128.028 44.6099Z" fill="white"/>
<path d="M131.235 49.4212C130.984 49.3379 130.763 49.2171 130.567 49.0671C130.542 49.0463 130.526 49.0213 130.517 48.988C130.509 48.9547 130.513 48.9255 130.522 48.8963C130.555 48.8172 130.642 48.6589 130.776 48.4256C130.818 48.3673 130.868 48.334 130.926 48.334C130.959 48.334 130.997 48.3423 131.03 48.3631C131.21 48.4881 131.381 48.5798 131.535 48.6381C131.693 48.6964 131.86 48.7256 132.035 48.7256C132.244 48.7256 132.406 48.6881 132.515 48.6089C132.623 48.5339 132.682 48.4256 132.682 48.2923C132.682 48.1799 132.632 48.0882 132.54 48.0216C132.444 47.9549 132.265 47.8758 132.002 47.7758L131.731 47.6716C131.51 47.5883 131.322 47.4967 131.168 47.3967C131.014 47.3009 130.88 47.1676 130.776 46.9968C130.667 46.826 130.613 46.6136 130.613 46.3595C130.613 45.9637 130.747 45.6513 131.005 45.418C131.268 45.1848 131.614 45.0681 132.052 45.0681C132.306 45.0681 132.557 45.1098 132.803 45.1931C133.049 45.2764 133.261 45.3889 133.449 45.5347C133.474 45.5555 133.491 45.5805 133.499 45.6138C133.507 45.6471 133.507 45.6763 133.499 45.7055C133.453 45.8096 133.378 45.9679 133.274 46.1762C133.245 46.2303 133.195 46.2595 133.132 46.2595C133.099 46.2595 133.061 46.2512 133.028 46.2303C132.682 46.0054 132.361 45.8929 132.069 45.8929C131.898 45.8929 131.764 45.9304 131.668 46.0012C131.572 46.072 131.522 46.1762 131.522 46.3053C131.522 46.4344 131.577 46.5428 131.689 46.6302C131.798 46.7177 132.002 46.8177 132.298 46.9343C132.582 47.0426 132.803 47.1384 132.961 47.2134C133.119 47.2926 133.265 47.4134 133.395 47.58C133.528 47.7466 133.595 47.9632 133.595 48.2298C133.595 48.4964 133.528 48.7172 133.395 48.9172C133.261 49.1171 133.078 49.2713 132.84 49.3837C132.602 49.492 132.331 49.5462 132.027 49.5462C131.756 49.5462 131.497 49.5045 131.247 49.4212" fill="white"/>
<path d="M135.467 49.088C135.225 48.8464 135.104 48.5339 135.104 48.1424V45.9929H134.587C134.541 45.9929 134.504 45.9762 134.475 45.9471C134.446 45.9179 134.429 45.8804 134.429 45.8346V45.3097C134.429 45.2639 134.446 45.2264 134.475 45.1972C134.504 45.1681 134.541 45.1514 134.587 45.1514H135.104V44.3433C135.104 44.2975 135.121 44.26 135.15 44.2308C135.18 44.2017 135.217 44.185 135.263 44.185H135.847C135.893 44.185 135.93 44.2017 135.959 44.2308C135.988 44.26 136.005 44.2975 136.005 44.3433V45.1514H137.273C137.319 45.1514 137.356 45.1681 137.385 45.1972C137.415 45.2264 137.431 45.2639 137.431 45.3097V45.8429C137.431 45.8887 137.415 45.9262 137.385 45.9554C137.356 45.9846 137.319 46.0012 137.273 46.0012H136.005V48.1049C136.005 48.2548 136.047 48.3756 136.134 48.4631C136.222 48.5548 136.339 48.5964 136.485 48.5964L137.273 48.6047C137.319 48.6047 137.356 48.6214 137.385 48.6506C137.415 48.6797 137.431 48.7172 137.431 48.763V49.2879C137.431 49.3337 137.415 49.3712 137.385 49.4004C137.356 49.4295 137.319 49.4462 137.273 49.4462H136.418C136.03 49.4462 135.713 49.3254 135.471 49.088" fill="white"/>
<path d="M139.237 49.3421C139.166 49.2712 139.129 49.1796 139.129 49.0754V46.0137H138.52C138.474 46.0137 138.436 45.997 138.407 45.9679C138.378 45.9387 138.361 45.9012 138.361 45.8554V45.318C138.361 45.2722 138.378 45.2347 138.407 45.2056C138.436 45.1764 138.474 45.1597 138.52 45.1597H139.65C139.754 45.1597 139.842 45.1972 139.917 45.268C139.988 45.343 140.025 45.4305 140.025 45.5346V48.5964H140.634C140.68 48.5964 140.717 48.6131 140.746 48.6422C140.776 48.6714 140.792 48.7089 140.792 48.7547V49.2921C140.792 49.3379 140.776 49.3754 140.746 49.4045C140.717 49.4337 140.68 49.4504 140.634 49.4504H139.504C139.4 49.4504 139.312 49.4129 139.237 49.3421ZM139.208 44.6099C139.179 44.5807 139.162 44.5432 139.162 44.4974V43.6809C139.162 43.6351 139.179 43.5976 139.208 43.5685C139.237 43.5393 139.274 43.5226 139.32 43.5226H139.829C139.875 43.5226 139.912 43.5393 139.942 43.5685C139.971 43.5976 139.988 43.6351 139.988 43.6809V44.4974C139.988 44.5432 139.971 44.5807 139.942 44.6099C139.912 44.639 139.875 44.6557 139.829 44.6557H139.32C139.274 44.6557 139.237 44.639 139.208 44.6099Z" fill="white"/>
<path d="M142.481 49.2087C142.21 49.0504 141.993 48.8338 141.835 48.5589C141.676 48.284 141.593 47.984 141.593 47.6591V46.851C141.593 46.5261 141.672 46.2261 141.835 45.9512C141.993 45.6763 142.21 45.4597 142.481 45.3014C142.752 45.1431 143.052 45.0598 143.378 45.0598C143.703 45.0598 143.999 45.1389 144.274 45.3014C144.545 45.4597 144.762 45.6763 144.921 45.9512C145.079 46.2261 145.162 46.5261 145.162 46.851V47.3509C145.162 47.4425 145.133 47.5175 145.067 47.58C145.004 47.6425 144.929 47.6758 144.837 47.6758H142.489V47.7133C142.489 47.959 142.577 48.1673 142.748 48.3381C142.919 48.5089 143.128 48.5964 143.374 48.5964H144.566C144.612 48.5964 144.65 48.613 144.679 48.6422C144.708 48.6714 144.725 48.7089 144.725 48.7547V49.2921C144.725 49.3379 144.708 49.3754 144.679 49.4045C144.65 49.4337 144.612 49.4503 144.566 49.4503H143.374C143.048 49.4503 142.748 49.3712 142.477 49.2087M144.262 46.8635V46.7968C144.262 46.5511 144.174 46.3428 144.003 46.172C143.832 46.0012 143.62 45.9137 143.378 45.9137C143.136 45.9137 142.923 46.0012 142.752 46.172C142.581 46.3428 142.494 46.5511 142.494 46.7968V46.8635H144.262Z" fill="white"/>
<path d="M146.297 49.4046C146.268 49.3754 146.251 49.3379 146.251 49.2921V43.8684C146.251 43.8226 146.268 43.7851 146.297 43.756C146.326 43.7268 146.364 43.7101 146.409 43.7101H146.993C147.039 43.7101 147.077 43.7268 147.106 43.756C147.135 43.7851 147.152 43.8226 147.152 43.8684V46.6844H147.406L148.749 45.2473C148.803 45.1889 148.87 45.1556 148.953 45.1556H149.637C149.683 45.1556 149.72 45.1681 149.75 45.1973C149.779 45.2264 149.795 45.2598 149.795 45.2973C149.795 45.3306 149.779 45.3681 149.75 45.4097L148.14 47.0885L149.85 49.2171C149.875 49.2505 149.887 49.2838 149.887 49.3129C149.887 49.3546 149.875 49.3838 149.85 49.4087C149.825 49.4337 149.791 49.4462 149.745 49.4462H149.078C148.982 49.4462 148.907 49.4087 148.845 49.3338L147.406 47.5217H147.16V49.2879C147.16 49.3338 147.143 49.3713 147.114 49.4004C147.085 49.4296 147.047 49.4462 147.002 49.4462H146.418C146.372 49.4462 146.334 49.4296 146.305 49.4004" fill="white"/>
<path d="M151.101 49.4129C150.98 49.2921 150.917 49.1463 150.917 48.9714C150.917 48.7964 150.98 48.6506 151.101 48.5298C151.222 48.409 151.372 48.3507 151.547 48.3507C151.722 48.3507 151.864 48.4132 151.98 48.534C152.101 48.6548 152.16 48.8006 152.16 48.9714C152.16 49.1421 152.101 49.2879 151.98 49.4088C151.86 49.5296 151.714 49.592 151.547 49.592C151.38 49.592 151.222 49.5296 151.101 49.4129ZM151.142 47.8258C151.113 47.7966 151.096 47.7592 151.096 47.7133V44.2517C151.096 44.2059 151.113 44.1684 151.142 44.1392C151.171 44.11 151.209 44.0934 151.255 44.0934H151.826C151.872 44.0934 151.91 44.11 151.939 44.1392C151.968 44.1684 151.985 44.2059 151.985 44.2517V47.7133C151.985 47.7592 151.968 47.7966 151.939 47.8258C151.91 47.855 151.872 47.8716 151.826 47.8716H151.255C151.209 47.8716 151.171 47.855 151.142 47.8258Z" fill="white"/>
<path d="M7.04733 29.6135C6.30507 29.6135 5.67957 29.9051 5.17082 30.4925C4.66208 31.0798 4.40771 31.8463 4.40771 32.7961C4.40771 33.7458 4.66208 34.4915 5.17082 35.033C5.67957 35.5746 6.30507 35.8495 7.04733 35.8495C7.53105 35.8495 7.97725 35.7953 8.38174 35.6829C8.73619 35.5871 9.14068 35.4329 9.59104 35.2246C9.69946 35.1747 9.8329 35.2247 9.87878 35.3371L10.9463 37.9282C10.9838 38.0198 10.9546 38.1239 10.8754 38.1823C10.2207 38.6613 9.50764 38.9737 8.74036 39.1154C7.91887 39.2695 7.25166 39.3486 6.73458 39.3486C4.69544 39.3486 3.06496 38.7696 1.83898 37.6157C0.612993 36.4577 0 34.8539 0 32.8002C0 30.7466 0.612993 29.097 1.83898 27.8973C3.06496 26.6976 4.69544 26.0977 6.73458 26.0977C7.25166 26.0977 7.92304 26.181 8.74036 26.3435C9.50764 26.4976 10.2207 26.8142 10.8754 27.2933C10.9546 27.3516 10.9838 27.4557 10.9463 27.5474L9.87878 30.1384C9.8329 30.2509 9.69946 30.3009 9.59104 30.2509C9.14068 30.0426 8.74036 29.8885 8.39425 29.7926C7.9981 29.6802 7.54773 29.626 7.04733 29.626" fill="white"/>
<path d="M18.5149 26.0936C20.6041 26.0936 22.2846 26.681 23.5523 27.8515C24.82 29.0262 25.458 30.6883 25.458 32.8461C25.458 35.0039 24.7866 36.5161 23.4355 37.645C22.0886 38.7739 20.4039 39.3404 18.3856 39.3404C16.3673 39.3404 14.7494 38.778 13.49 37.6575C12.2307 36.5369 11.5968 34.8873 11.5968 32.717C11.5968 30.5467 12.2515 29.0262 13.5651 27.8515C14.8786 26.6768 16.5258 26.0936 18.5107 26.0936M18.4357 35.8496C19.2488 35.8496 19.8868 35.6038 20.3539 35.1123C20.8209 34.6207 21.0544 33.8667 21.0544 32.8461C21.0544 31.8964 20.8418 31.1216 20.4206 30.5175C19.9994 29.9135 19.3906 29.6136 18.5941 29.6136C17.7977 29.6136 17.1263 29.8802 16.6759 30.4176C16.2256 30.9508 16.0004 31.7214 16.0004 32.7212C16.0004 33.7209 16.2089 34.4707 16.6217 35.0248C17.0345 35.5788 17.6392 35.8537 18.4357 35.8537" fill="white"/>
<path d="M48.6224 29.6135C47.8801 29.6135 47.2546 29.9051 46.7459 30.4925C46.2372 31.0798 45.9828 31.8463 45.9828 32.7961C45.9828 33.7458 46.2372 34.4915 46.7459 35.033C47.2546 35.5746 47.8801 35.8495 48.6224 35.8495C49.1061 35.8495 49.5523 35.7953 49.9568 35.6829C50.3113 35.5871 50.7116 35.4329 51.1661 35.2246C51.2787 35.1747 51.408 35.2247 51.4538 35.3371L52.5214 37.9282C52.5589 38.0198 52.5297 38.1239 52.4505 38.1823C51.7958 38.6613 51.0827 38.9737 50.3154 39.1154C49.4939 39.2695 48.8267 39.3486 48.3097 39.3486C46.2705 39.3486 44.64 38.7696 43.4141 37.6157C42.1881 36.4577 41.5751 34.8539 41.5751 32.8002C41.5751 30.7466 42.1881 29.097 43.4141 27.8973C44.64 26.6976 46.2705 26.0977 48.3097 26.0977C48.8267 26.0977 49.4981 26.181 50.3154 26.3435C51.0827 26.4976 51.7958 26.8142 52.4505 27.2933C52.5297 27.3516 52.5589 27.4557 52.5214 27.5474L51.4538 30.1384C51.408 30.2509 51.2745 30.3009 51.1661 30.2509C50.7158 30.0426 50.3154 29.8885 49.9693 29.7926C49.5732 29.6802 49.1228 29.626 48.6224 29.626" fill="white"/>
<path d="M58.668 39.5529C56.9249 39.5529 55.6906 39.053 54.965 38.0532C54.2394 37.0535 53.8766 35.8121 53.8766 34.325V26.7477C53.8766 26.631 53.9726 26.5352 54.0893 26.5352H57.9382C58.055 26.5352 58.1509 26.631 58.1509 26.7477V34.2208C58.1509 34.8082 58.2969 35.2539 58.5929 35.5663C58.8848 35.8788 59.3018 36.0329 59.8356 36.0329C60.165 36.0329 60.5528 35.9454 61.0032 35.7746C61.4119 35.6163 61.7872 35.4414 62.1375 35.2414C62.2042 35.2039 62.2459 35.1331 62.2459 35.054V26.7477C62.2459 26.631 62.3418 26.5352 62.4585 26.5352H66.3075C66.4242 26.5352 66.5201 26.631 66.5201 26.7477V38.8447C66.5201 38.9613 66.4242 39.0572 66.3075 39.0572H64.4685C64.4059 39.0572 64.3476 39.0322 64.31 38.9863L63.5136 38.0866C63.4427 38.0074 63.3217 37.9907 63.2342 38.0532C62.7254 38.3948 62.0874 38.7197 61.3285 39.0322C60.4903 39.3779 59.6063 39.5487 58.6722 39.5487" fill="white"/>
<path d="M76.2196 26.6768L76.9702 29.6719C77.0036 29.801 76.9119 29.926 76.7784 29.9343C76.2488 29.9635 75.6859 30.076 75.0937 30.2759C74.4349 30.4967 73.8219 30.8341 73.2547 31.284C73.2047 31.3256 73.1755 31.3881 73.1755 31.4506V38.8446C73.1755 38.9613 73.0796 39.0571 72.9628 39.0571H69.1139C68.9972 39.0571 68.9012 38.9613 68.9012 38.8446V26.7476C68.9012 26.631 68.9972 26.5352 69.1139 26.5352H70.9446C71.0113 26.5352 71.0738 26.5643 71.1114 26.6185L72.0621 27.8515C72.133 27.9431 72.2581 27.9598 72.354 27.8973C72.8377 27.5641 73.4049 27.2558 74.0554 26.9809C74.7226 26.6976 75.3731 26.5435 76.007 26.5185C76.107 26.5185 76.1946 26.5851 76.2196 26.681" fill="white"/>
<path d="M85.4229 26.6768L86.1735 29.6719C86.2068 29.801 86.1151 29.926 85.9817 29.9343C85.4521 29.9635 84.8891 30.076 84.2928 30.2759C83.6339 30.4967 83.0209 30.8341 82.458 31.284C82.408 31.3256 82.3788 31.3881 82.3788 31.4506V38.8446C82.3788 38.9613 82.2828 39.0571 82.1661 39.0571H78.3172C78.2004 39.0571 78.1045 38.9613 78.1045 38.8446V26.7476C78.1045 26.631 78.2004 26.5352 78.3172 26.5352H80.1478C80.2145 26.5352 80.2771 26.5643 80.3146 26.6185L81.2654 27.8515C81.3363 27.9431 81.4614 27.9598 81.5573 27.8973C82.041 27.5641 82.6081 27.2558 83.2586 26.9809C83.9258 26.6976 84.5764 26.5435 85.2102 26.5185C85.3103 26.5185 85.3979 26.5851 85.4229 26.681" fill="white"/>
<path d="M93.4125 26.0936C95.4142 26.0936 96.907 26.7435 97.8828 28.0473C98.8586 29.3512 99.3465 30.88 99.3465 32.642V33.8501C99.3465 33.9667 99.2506 34.0625 99.1338 34.0625H91.7195C91.5694 34.0625 91.461 34.2166 91.5194 34.3541C91.707 34.8123 92.0072 35.1706 92.4159 35.4205C92.908 35.7246 93.5168 35.8746 94.2424 35.8746C94.797 35.8746 95.3391 35.8204 95.8729 35.7079C96.3399 35.6121 96.8069 35.458 97.2782 35.2456C97.3907 35.1956 97.52 35.2456 97.5659 35.358L98.6084 37.9199C98.6459 38.0115 98.6167 38.1199 98.5333 38.174C97.887 38.6197 97.0947 38.9238 96.1689 39.0863C95.1765 39.2571 94.4217 39.3446 93.9004 39.3446C91.8113 39.3446 90.1057 38.803 88.7838 37.7158C87.4619 36.6285 86.8031 34.9914 86.8031 32.8003C86.8031 30.73 87.4286 29.0971 88.6796 27.8974C89.9306 26.6976 91.5068 26.0978 93.4084 26.0978M93.3083 29.5636C92.7912 29.5636 92.3617 29.7261 92.0239 30.0552C91.7404 30.3301 91.536 30.6967 91.4026 31.1549C91.3651 31.2924 91.4651 31.4298 91.6069 31.4298H95.0138C95.1514 31.4298 95.2557 31.3007 95.2223 31.1632C95.1306 30.7883 94.9555 30.4426 94.7053 30.1343C94.3967 29.7552 93.9296 29.5636 93.3083 29.5636Z" fill="white"/>
<path d="M109.029 26.0436C110.772 26.0436 112.019 26.5435 112.774 27.5432C113.525 28.543 113.9 29.7843 113.9 31.2715V38.8488C113.9 38.9654 113.804 39.0612 113.687 39.0612H109.867C109.751 39.0612 109.655 38.9654 109.655 38.8488V31.3756C109.655 30.7883 109.496 30.3425 109.175 30.0301C108.854 29.7218 108.429 29.5636 107.891 29.5636C107.528 29.5636 107.103 29.6594 106.619 29.8468C106.181 30.0218 105.785 30.2051 105.431 30.405C105.364 30.4425 105.322 30.5133 105.322 30.5925V38.8488C105.322 38.9654 105.226 39.0612 105.109 39.0612H101.29C101.173 39.0612 101.077 38.9654 101.077 38.8488V26.7517C101.077 26.6351 101.173 26.5393 101.29 26.5393H103.129C103.191 26.5393 103.25 26.5685 103.291 26.6143L104.088 27.5557C104.159 27.639 104.28 27.6557 104.371 27.5932C104.901 27.235 105.56 26.8975 106.348 26.5768C107.22 26.2227 108.112 26.0477 109.029 26.0477" fill="white"/>
<path d="M38.8645 27.5433C38.1139 26.5435 36.8462 25.9895 35.099 25.9895C34.4318 25.9895 33.7479 26.2561 33.1016 26.5852C31.5962 27.36 30.0866 27.7974 27.9766 27.7974C27.8056 27.7974 27.6096 27.7891 27.397 27.7682C27.2719 27.7557 27.1635 27.8557 27.1635 27.9807V38.8447C27.1635 38.9613 27.2594 39.0571 27.3761 39.0571H31.1959C31.3126 39.0571 31.4085 38.9613 31.4085 38.8447V30.5884C31.4085 30.5134 31.4502 30.4384 31.517 30.4009C31.8714 30.201 32.2676 30.0135 32.7054 29.8427C33.1891 29.6511 33.6145 29.5595 33.9731 29.5595C34.5069 29.5595 34.9364 29.7136 35.2575 30.026C35.5786 30.3384 35.737 30.7842 35.737 31.3715V38.8447C35.737 38.9613 35.8329 39.0571 35.9497 39.0571H39.7736C39.8903 39.0571 39.9863 38.9613 39.9863 38.8447V31.2674C39.9863 29.7844 39.611 28.543 38.8604 27.5391" fill="white"/>
<path d="M124.508 35.6955C124.463 35.583 124.333 35.5372 124.221 35.583C124.004 35.6788 123.783 35.7538 123.554 35.8121C123.253 35.8913 122.986 35.9288 122.765 35.9288C122.177 35.9288 121.735 35.758 121.431 35.4122C121.127 35.0665 120.976 34.6082 120.976 34.0417V30.3968C120.976 30.2801 121.072 30.1843 121.189 30.1843H123.508C123.624 30.1843 123.72 30.0885 123.72 29.9719L123.745 27.0851C123.745 26.9684 123.649 26.8685 123.533 26.8685H121.189C121.072 26.8685 120.976 26.7727 120.976 26.656V24.2316C120.976 24.115 120.881 24.0192 120.764 24.0192H116.94C116.823 24.0192 116.727 24.115 116.727 24.2316V26.656C116.727 26.7727 116.631 26.8685 116.515 26.8685H115.101C114.984 26.8685 114.888 26.9643 114.888 27.0809V29.9677C114.888 30.0843 114.984 30.1802 115.101 30.1802H116.515C116.631 30.1802 116.727 30.276 116.727 30.3926V34.5791C116.727 36.1829 117.29 37.3909 118.424 38.2032C119.554 39.0155 120.906 39.4196 122.478 39.4196C123.011 39.4196 123.599 39.3196 124.237 39.1238C124.792 38.953 125.213 38.7531 125.509 38.5198C125.584 38.4615 125.614 38.3573 125.576 38.2698L124.504 35.6955H124.508Z" fill="white"/>
<path d="M130.826 36.8618C130.826 37.4992 130.613 38.0282 130.192 38.4406C129.767 38.853 129.254 39.0613 128.649 39.0613C128.011 39.0613 127.477 38.853 127.056 38.4406C126.635 38.0282 126.422 37.4992 126.422 36.8618C126.422 36.2245 126.635 35.7204 127.056 35.2955C127.482 34.8706 128.011 34.6624 128.649 34.6624C129.254 34.6624 129.767 34.8748 130.192 35.2955C130.613 35.7163 130.826 36.2411 130.826 36.8618Z" fill="#E57200"/>
<path d="M140.55 26.0436C142.294 26.0436 143.54 26.5435 144.295 27.5432C145.046 28.543 145.421 29.7843 145.421 31.2715V38.8488C145.421 38.9654 145.325 39.0612 145.208 39.0612H141.389C141.272 39.0612 141.176 38.9654 141.176 38.8488V31.3756C141.176 30.7883 141.018 30.3425 140.696 30.0301C140.375 29.7218 139.95 29.5636 139.412 29.5636C139.049 29.5636 138.624 29.6594 138.14 29.8468C137.702 30.0218 137.306 30.2051 136.952 30.405C136.885 30.4425 136.843 30.5133 136.843 30.5925V38.8488C136.843 38.9654 136.747 39.0612 136.631 39.0612H132.811C132.694 39.0612 132.598 38.9654 132.598 38.8488V26.7517C132.598 26.6351 132.694 26.5393 132.811 26.5393H134.65C134.712 26.5393 134.771 26.5685 134.813 26.6143L135.609 27.5557C135.68 27.639 135.801 27.6557 135.893 27.5932C136.422 27.235 137.081 26.8975 137.869 26.5768C138.741 26.2227 139.633 26.0477 140.55 26.0477" fill="#E57200"/>
<path d="M147.735 22.1196V38.8446C147.735 38.9613 147.831 39.0571 147.948 39.0571H151.772C151.889 39.0571 151.985 38.9613 151.985 38.8446V22.1196C151.985 22.0029 151.889 21.9071 151.772 21.9071H147.948C147.831 21.9071 147.735 22.0029 147.735 22.1196Z" fill="#E57200"/>
<path d="M13.5692 8.04803C15.6584 8.04803 17.3389 8.63539 18.6066 9.80594C19.8743 10.9807 20.5123 12.6427 20.5123 14.8005C20.5123 16.9584 19.8368 18.4705 18.4899 19.5994C17.143 20.7283 15.4583 21.2948 13.44 21.2948C11.4217 21.2948 9.80372 20.7324 8.54437 19.6119C7.28503 18.4913 6.65118 16.8417 6.65118 14.6714C6.65118 12.5011 7.30588 10.9807 8.61943 9.80594C9.93299 8.63123 11.5801 8.04803 13.5651 8.04803M13.49 17.804C14.3032 17.804 14.9412 17.5582 15.4082 17.0667C15.8753 16.5751 16.1088 15.8211 16.1088 14.8047C16.1088 13.8549 15.8961 13.0801 15.4749 12.4761C15.0538 11.8721 14.4449 11.5722 13.6485 11.5722C12.852 11.5722 12.1806 11.8388 11.7303 12.3761C11.2799 12.9135 11.0547 13.68 11.0547 14.6797C11.0547 15.6795 11.2632 16.4293 11.6761 16.9833C12.0889 17.5374 12.6935 17.8123 13.49 17.8123" fill="#E57200"/>
<path d="M34.5111 8.48959C34.6237 8.48959 34.7154 8.58124 34.7154 8.69371V21.0657C34.7154 22.7903 34.1441 24.1358 33.0057 25.1022C31.8673 26.0686 30.1909 26.5518 27.9808 26.5518C27.4471 26.5518 26.6506 26.4394 25.5998 26.2144C24.6115 26.0061 23.7524 25.6646 23.0227 25.198C22.9393 25.1438 22.9101 25.0397 22.9476 24.9481C23.1311 24.5148 23.3229 24.0774 23.5147 23.6276C23.7024 23.1902 23.8859 22.7569 24.0694 22.3237C24.1152 22.2154 24.2362 22.1696 24.3446 22.2196C25.0868 22.5653 25.7165 22.7986 26.2253 22.9194C26.7757 23.0485 27.3387 23.1152 27.9099 23.1152C28.7565 23.1152 29.3945 22.9486 29.8282 22.6111C30.2577 22.2737 30.4745 21.778 30.4745 21.124V20.9365C30.4745 20.7949 30.3327 20.6949 30.1993 20.7449C29.8448 20.8866 29.4737 21.0074 29.0734 21.1073C28.573 21.2365 28.0476 21.3031 27.4929 21.3031C25.5414 21.3031 24.0694 20.6783 23.0769 19.4286C22.0844 18.1789 21.5882 16.6209 21.5882 14.7589C21.5882 12.8968 22.0886 11.2639 23.0894 9.97256C24.0902 8.67705 25.6373 8.03137 27.7265 8.03137C28.402 8.03137 29.1026 8.173 29.8365 8.45627C30.4995 8.71454 31.0917 9.03113 31.6088 9.4102C31.6963 9.47685 31.8214 9.46019 31.8923 9.37271L32.5136 8.57291C32.5512 8.52292 32.6137 8.49376 32.6721 8.49376H34.5194L34.5111 8.48959ZM25.9584 14.6714C25.9584 15.517 26.1627 16.2502 26.5672 16.8709C26.9717 17.4916 27.6431 17.804 28.573 17.804C28.8482 17.804 29.1651 17.754 29.5196 17.6498C29.8282 17.5582 30.1075 17.4499 30.3577 17.3208C30.4245 17.2874 30.4662 17.2166 30.4662 17.1416V12.472C30.4662 12.4095 30.437 12.3511 30.3911 12.3095C30.1159 12.097 29.7948 11.9138 29.432 11.7638C29.0359 11.6013 28.6731 11.518 28.3436 11.518C27.4638 11.518 26.8466 11.8679 26.4921 12.5678C26.1377 13.2676 25.9625 13.9674 25.9625 14.6756" fill="#E57200"/>
<path d="M41.6209 4.42392C41.6209 5.06126 41.3874 5.60696 40.9204 6.05269C40.4533 6.50258 39.8987 6.72335 39.2607 6.72335C38.6227 6.72335 38.0764 6.49841 37.6302 6.05269C37.1799 5.6028 36.9589 5.06126 36.9589 4.42392C36.9589 3.78657 37.184 3.23254 37.6302 2.76599C38.0806 2.29944 38.6227 2.06616 39.2607 2.06616C39.8987 2.06616 40.4533 2.29944 40.9204 2.76599C41.3874 3.23254 41.6209 3.78241 41.6209 4.42392ZM41.4166 8.66455V20.8074C41.4166 20.9199 41.3249 21.0115 41.2123 21.0115H37.3425C37.2299 21.0115 37.1382 20.9199 37.1382 20.8074V8.66455C37.1382 8.55207 37.2299 8.46043 37.3425 8.46043H41.2123C41.3249 8.46043 41.4166 8.55207 41.4166 8.66455Z" fill="#E57200"/>
<path d="M49.0645 13.0177C50.1028 13.3801 51.087 13.8841 52.0169 14.5298C52.9468 15.1755 53.4138 16.0711 53.4138 17.2083C53.4138 18.5038 52.976 19.5077 52.1044 20.2242C51.2329 20.9407 49.9235 21.299 48.1805 21.299C47.6467 21.299 46.846 21.1698 45.7827 20.9116C44.7861 20.6699 43.9479 20.3034 43.2807 19.816C43.2056 19.7618 43.1806 19.6619 43.214 19.5744L44.2898 16.9667C44.3357 16.8584 44.4566 16.8126 44.5609 16.8584C45.0446 17.0833 45.5825 17.2916 46.1705 17.4791C46.8335 17.6957 47.3923 17.804 47.8427 17.804C48.2388 17.804 48.5432 17.7415 48.7476 17.6082C48.9561 17.4791 49.0562 17.3374 49.0562 17.1833C49.0562 16.9958 48.9519 16.8209 48.7476 16.6668C48.5391 16.5126 48.193 16.3543 47.7092 16.2002C46.6709 15.8545 45.6826 15.3712 44.7444 14.7506C43.8061 14.1299 43.3349 13.2593 43.3349 12.1387C43.3349 10.8598 43.8103 9.86009 44.761 9.13527C45.7118 8.41045 47.0128 8.04803 48.6725 8.04803C49.1896 8.04803 49.911 8.16884 50.8368 8.41045C51.7041 8.63956 52.4714 8.99364 53.1344 9.48102C53.2095 9.53517 53.2345 9.63515 53.2012 9.72263L52.1253 12.3262C52.0794 12.4345 51.9543 12.4803 51.8459 12.4303C51.3747 12.197 50.8993 12.0012 50.4198 11.8429C49.8777 11.6638 49.3606 11.5722 48.8768 11.5722C48.4807 11.5722 48.1888 11.6347 48.0095 11.7513C47.8302 11.8721 47.7384 12.0096 47.7384 12.1637C47.7384 12.3178 47.8302 12.4553 48.0095 12.5761C48.1888 12.6969 48.5391 12.8427 49.0562 13.0177" fill="#E57200"/>
<path d="M70.4107 4.42392C70.4107 5.06126 70.1772 5.60696 69.7102 6.05269C69.2431 6.50258 68.6885 6.72335 68.0505 6.72335C67.4125 6.72335 66.8662 6.49841 66.42 6.05269C65.9697 5.6028 65.7487 5.06126 65.7487 4.42392C65.7487 3.78657 65.9738 3.23254 66.42 2.76599C66.8704 2.29944 67.4125 2.06616 68.0505 2.06616C68.6885 2.06616 69.2431 2.29944 69.7102 2.76599C70.1772 3.23254 70.4107 3.78241 70.4107 4.42392ZM70.2064 8.66455V20.8074C70.2064 20.9199 70.1147 21.0115 70.0021 21.0115H66.1323C66.0197 21.0115 65.928 20.9199 65.928 20.8074V8.66455C65.928 8.55207 66.0197 8.46043 66.1323 8.46043H70.0021C70.1147 8.46043 70.2064 8.55207 70.2064 8.66455Z" fill="#E57200"/>
<path d="M78.5006 8.04803C80.5022 8.04803 81.9951 8.69788 82.9709 10.0017C83.9467 11.3056 84.4346 12.8344 84.4346 14.5964V15.817C84.4346 15.9294 84.3428 16.0211 84.2302 16.0211H76.7909C76.6491 16.0211 76.5491 16.1669 76.5991 16.3002C76.7867 16.7667 77.087 17.1291 77.4998 17.3791C77.9919 17.6832 78.6007 17.8331 79.3263 17.8331C79.8809 17.8331 80.423 17.779 80.9568 17.6665C81.428 17.5665 81.8992 17.4124 82.3704 17.2C82.4747 17.1541 82.5998 17.2 82.6456 17.3083L83.6965 19.8868C83.7298 19.9743 83.7048 20.0743 83.6256 20.1284C82.9751 20.5783 82.1869 20.8824 81.257 21.0449C80.2645 21.2156 79.5098 21.3031 78.9885 21.3031C76.8993 21.3031 75.1938 20.7616 73.8719 19.6744C72.55 18.5871 71.8911 16.95 71.8911 14.7589C71.8911 12.6886 72.5166 11.0556 73.7677 9.85593C75.0187 8.65622 76.5949 8.05637 78.4965 8.05637M78.3964 11.518C77.8793 11.518 77.4498 11.6805 77.1162 12.0096C76.8326 12.2887 76.6241 12.6594 76.4907 13.1218C76.4531 13.2509 76.5532 13.3801 76.6867 13.3801H80.1186C80.252 13.3801 80.3479 13.2551 80.3188 13.1301C80.227 12.7469 80.0519 12.4011 79.7975 12.0887C79.4889 11.7096 79.0219 11.518 78.4005 11.518" fill="#E57200"/>
<path d="M0.58376 4.05733V20.8074C0.58376 20.9199 0.6755 21.0115 0.788091 21.0115H4.62868C4.74127 21.0115 4.83301 20.9199 4.83301 20.8074V4.05733C4.83301 3.94485 4.74127 3.85321 4.62868 3.85321H0.783921C0.67133 3.85321 0.57959 3.94485 0.57959 4.05733" fill="#E57200"/>
<path d="M63.6846 17.6373C63.6387 17.529 63.5178 17.4873 63.4093 17.5331C63.1925 17.6289 62.9673 17.7081 62.7338 17.7664C62.4294 17.8456 62.1667 17.883 61.9457 17.883C61.3577 17.883 60.9115 17.7123 60.6113 17.3665C60.3068 17.0208 60.1567 16.5667 60.1567 15.996V12.3427C60.1567 12.2303 60.2485 12.1386 60.361 12.1386H62.6963C62.8089 12.1386 62.8964 12.0511 62.9006 11.9387L62.9256 9.03105C62.9256 8.91858 62.8339 8.82693 62.7213 8.82693H60.3569C60.2443 8.82693 60.1525 8.73529 60.1525 8.62282V6.17342C60.1525 6.06094 60.0608 5.9693 59.9482 5.9693H56.1076C55.995 5.9693 55.9033 6.06094 55.9033 6.17342V8.62282C55.9033 8.73529 55.8116 8.82693 55.699 8.82693H54.2645C54.1519 8.82693 54.0602 8.91858 54.0602 9.03105V11.9387C54.0602 12.0511 54.1519 12.1428 54.2645 12.1428H55.699C55.8116 12.1428 55.9033 12.2344 55.9033 12.3469V16.5417C55.9033 18.1455 56.4704 19.3535 57.6005 20.1658C58.7306 20.9781 60.0817 21.3822 61.6538 21.3822C62.1875 21.3822 62.7755 21.2822 63.4135 21.0864C63.9723 20.9115 64.3976 20.7115 64.6895 20.4782C64.7646 20.4199 64.7896 20.3241 64.7562 20.2366L63.6762 17.6456L63.6846 17.6373Z" fill="#E57200"/>
<path d="M94.5176 13.705L97.6868 11.1764C97.7744 11.1056 97.7911 10.9765 97.716 10.889C97.3574 10.4558 96.9946 10.0225 96.6151 9.58514C96.2357 9.14775 95.8645 8.70202 95.4934 8.26047C95.4225 8.17299 95.2891 8.16049 95.2057 8.23964C94.4467 8.91864 93.6753 9.58931 92.8997 10.26C92.1866 10.8765 91.4777 11.4888 90.7729 12.1012C90.6395 12.2137 90.4393 12.122 90.4393 11.9471V4.05733C90.4393 3.94485 90.3476 3.85321 90.235 3.85321H86.3944C86.2818 3.85321 86.1901 3.94485 86.1901 4.05733V20.8074C86.1901 20.9199 86.2818 21.0115 86.3944 21.0115H90.235C90.3476 21.0115 90.4393 20.9199 90.4393 20.8074V17.0458C90.4393 16.9833 90.4685 16.925 90.5144 16.8875C90.6437 16.7834 90.7813 16.6751 90.9147 16.5584C91.0148 16.4751 91.1107 16.396 91.2066 16.3168C91.3025 16.2377 91.4485 16.2668 91.511 16.3751L94.1048 20.9074C94.1423 20.9699 94.209 21.0073 94.2799 21.0073H98.4583C98.6167 21.0073 98.7168 20.8324 98.6293 20.6991L94.4592 13.9674C94.405 13.8799 94.4259 13.7675 94.5051 13.7008" fill="#E57200"/>
<path d="M105.126 3.88238L104.263 4.19064C104.271 4.24896 104.275 4.30728 104.275 4.3656C104.275 5.00711 103.754 5.52365 103.116 5.52365C102.478 5.52365 101.957 5.00711 101.957 4.3656C101.957 3.72409 102.474 3.20755 103.116 3.20755C103.546 3.20755 103.921 3.44082 104.121 3.79074L104.98 3.48665C104.705 2.92012 104.184 2.51188 103.579 2.37025L105.347 0.604019C105.18 0.504043 105.005 0.416565 104.826 0.341583C104.688 0.283264 104.551 0.233276 104.413 0.19162L103.12 1.48297L103.717 0.0416565C103.521 0.0166626 103.321 0 103.12 0C102.979 0 102.837 0.00833129 102.695 0.0208282L101.999 1.70375V0.145798C101.803 0.199951 101.607 0.262436 101.415 0.345749C101.29 0.399902 101.165 0.458221 101.044 0.520706V4.38226C101.044 4.50723 101.056 4.6322 101.077 4.75717C101.281 5.88189 102.361 6.62754 103.483 6.42343C104.609 6.21931 105.356 5.14457 105.151 4.01985C105.143 3.97403 105.13 3.9282 105.122 3.88238" fill="#E57200"/>
<path d="M107.153 2.67018C106.932 2.14947 106.615 1.68292 106.215 1.27885C106.044 1.10806 105.86 0.953934 105.664 0.812302L104.997 1.47881C105.197 1.60794 105.385 1.7579 105.556 1.93286C106.206 2.5827 106.565 3.44916 106.565 4.36976C106.565 5.29037 106.206 6.15683 105.556 6.80667C104.905 7.45651 104.038 7.81475 103.116 7.81475C102.195 7.81475 101.327 7.45651 100.677 6.80667C100.026 6.15683 99.6676 5.29037 99.6676 4.36976C99.6676 3.44916 100.022 2.5952 100.668 1.94536V0.749817C100.439 0.903946 100.222 1.08307 100.022 1.28302C99.6218 1.68292 99.3049 2.15364 99.0838 2.67435C98.8545 3.21588 98.7377 3.78657 98.7377 4.3781C98.7377 4.96962 98.8545 5.54031 99.0838 6.08184C99.3049 6.60255 99.6218 7.0691 100.022 7.47317C100.422 7.87307 100.894 8.18966 101.415 8.41044C101.953 8.63955 102.528 8.75619 103.12 8.75619C103.713 8.75619 104.284 8.63955 104.826 8.41044C105.347 8.18966 105.814 7.87307 106.219 7.47317C106.619 7.07327 106.936 6.60255 107.157 6.08184C107.386 5.54448 107.503 4.96962 107.503 4.3781C107.503 3.78657 107.386 3.21588 107.157 2.67435" fill="#E57200"/>
</g>
<defs>
<clipPath id="clip0_5704_54472">
<rect width="152.16" height="51" fill="white"/>
</clipPath>
</defs>
</svg>
